<?xml version="1.0" encoding="UTF-8" ?>
<!DOCTYPE svg PUBLIC "-//W3C//DTD SVG 1.1//EN" "http://www.w3.org/Graphics/SVG/1.1/DTD/svg11.dtd">
<svg width="53pt" height="53pt" viewBox="0 0 53 53" version="1.1" xmlns="http://www.w3.org/2000/svg">
<g id="#183153ff">
<path fill="#183153" opacity="1.00" d=" M 0.00 0.00 L 53.00 0.00 L 53.00 53.00 L 0.00 53.00 L 0.00 0.00 M 21.35 10.40 C 15.20 12.09 10.38 17.67 9.64 24.01 C 8.19 33.31 16.50 42.77 26.00 42.05 C 35.32 42.44 43.27 33.03 41.77 23.90 C 40.80 14.41 30.49 7.67 21.35 10.40 Z" />
<path fill="#183153" opacity="1.00" d=" M 20.29 28.74 C 18.12 24.31 22.14 18.60 26.99 18.97 C 28.87 18.97 30.31 20.35 31.84 21.25 C 31.65 21.70 31.28 22.59 31.09 23.03 C 29.23 21.70 26.82 20.08 24.53 21.47 C 21.40 22.86 20.61 27.52 23.35 29.68 C 25.11 31.59 28.01 31.26 29.90 29.74 C 30.83 28.21 32.68 30.56 31.21 31.11 C 27.96 34.56 21.97 32.99 20.29 28.74 Z" />
</g>
<g id="#ffd43bff">
<path fill="#ffd43b" opacity="1.00" d=" M 21.35 10.40 C 30.49 7.67 40.80 14.41 41.77 23.90 C 43.27 33.03 35.32 42.44 26.00 42.05 C 16.50 42.77 8.19 33.31 9.64 24.01 C 10.38 17.67 15.20 12.09 21.35 10.40 M 20.29 28.74 C 21.97 32.99 27.96 34.56 31.21 31.11 C 32.68 30.56 30.83 28.21 29.90 29.74 C 28.01 31.26 25.11 31.59 23.35 29.68 C 20.61 27.52 21.40 22.86 24.53 21.47 C 26.82 20.08 29.23 21.70 31.09 23.03 C 31.28 22.59 31.65 21.70 31.84 21.25 C 30.31 20.35 28.87 18.97 26.99 18.97 C 22.14 18.60 18.12 24.31 20.29 28.74 Z" />
</g>
</svg>
